<svg id="wave" style="transform:rotate(0deg); transition: 0.3s" viewBox="0 0 1440 190" version="1.1" xmlns="http://www.w3.org/2000/svg"><defs><linearGradient id="sw-gradient-0" x1="0" x2="0" y1="1" y2="0"><stop stop-color="rgba(243, 106, 62, 1)" offset="0%"></stop><stop stop-color="rgba(255, 179, 11, 1)" offset="100%"></stop></linearGradient></defs><path style="transform:translate(0, 0px); opacity:1" fill="url(#sw-gradient-0)" d="M0,133L21.8,114C43.6,95,87,57,131,41.2C174.5,25,218,32,262,50.7C305.5,70,349,101,393,107.7C436.4,114,480,95,524,95C567.3,95,611,114,655,117.2C698.2,120,742,108,785,104.5C829.1,101,873,108,916,95C960,82,1004,51,1047,50.7C1090.9,51,1135,82,1178,101.3C1221.8,120,1265,127,1309,136.2C1352.7,146,1396,158,1440,148.8C1483.6,139,1527,108,1571,98.2C1614.5,89,1658,101,1702,104.5C1745.5,108,1789,101,1833,91.8C1876.4,82,1920,70,1964,76C2007.3,82,2051,108,2095,101.3C2138.2,95,2182,57,2225,60.2C2269.1,63,2313,108,2356,126.7C2400,146,2444,139,2487,133C2530.9,127,2575,120,2618,126.7C2661.8,133,2705,152,2749,158.3C2792.7,165,2836,158,2880,158.3C2923.6,158,2967,165,3011,155.2C3054.5,146,3098,120,3120,107.7L3141.8,95L3141.8,190L3120,190C3098.2,190,3055,190,3011,190C2967.3,190,2924,190,2880,190C2836.4,190,2793,190,2749,190C2705.5,190,2662,190,2618,190C2574.5,190,2531,190,2487,190C2443.6,190,2400,190,2356,190C2312.7,190,2269,190,2225,190C2181.8,190,2138,190,2095,190C2050.9,190,2007,190,1964,190C1920,190,1876,190,1833,190C1789.1,190,1745,190,1702,190C1658.2,190,1615,190,1571,190C1527.3,190,1484,190,1440,190C1396.4,190,1353,190,1309,190C1265.5,190,1222,190,1178,190C1134.5,190,1091,190,1047,190C1003.6,190,960,190,916,190C872.7,190,829,190,785,190C741.8,190,698,190,655,190C610.9,190,567,190,524,190C480,190,436,190,393,190C349.1,190,305,190,262,190C218.2,190,175,190,131,190C87.3,190,44,190,22,190L0,190Z"></path><defs><linearGradient id="sw-gradient-1" x1="0" x2="0" y1="1" y2="0"><stop stop-color="rgba(243, 106, 62, 1)" offset="0%"></stop><stop stop-color="rgba(255, 179, 11, 1)" offset="100%"></stop></linearGradient></defs><path style="transform:translate(0, 50px); opacity:0.9" fill="url(#sw-gradient-1)" d="M0,38L21.8,34.8C43.6,32,87,25,131,44.3C174.5,63,218,108,262,129.8C305.5,152,349,152,393,142.5C436.4,133,480,114,524,107.7C567.3,101,611,108,655,95C698.2,82,742,51,785,47.5C829.1,44,873,70,916,66.5C960,63,1004,32,1047,31.7C1090.9,32,1135,63,1178,76C1221.8,89,1265,82,1309,91.8C1352.7,101,1396,127,1440,136.2C1483.6,146,1527,139,1571,123.5C1614.5,108,1658,82,1702,72.8C1745.5,63,1789,70,1833,82.3C1876.4,95,1920,114,1964,114C2007.3,114,2051,95,2095,82.3C2138.2,70,2182,63,2225,72.8C2269.1,82,2313,108,2356,120.3C2400,133,2444,133,2487,110.8C2530.9,89,2575,44,2618,25.3C2661.8,6,2705,13,2749,31.7C2792.7,51,2836,82,2880,82.3C2923.6,82,2967,51,3011,31.7C3054.5,13,3098,6,3120,3.2L3141.8,0L3141.8,190L3120,190C3098.2,190,3055,190,3011,190C2967.3,190,2924,190,2880,190C2836.4,190,2793,190,2749,190C2705.5,190,2662,190,2618,190C2574.5,190,2531,190,2487,190C2443.6,190,2400,190,2356,190C2312.7,190,2269,190,2225,190C2181.8,190,2138,190,2095,190C2050.9,190,2007,190,1964,190C1920,190,1876,190,1833,190C1789.1,190,1745,190,1702,190C1658.2,190,1615,190,1571,190C1527.3,190,1484,190,1440,190C1396.4,190,1353,190,1309,190C1265.5,190,1222,190,1178,190C1134.5,190,1091,190,1047,190C1003.6,190,960,190,916,190C872.7,190,829,190,785,190C741.8,190,698,190,655,190C610.9,190,567,190,524,190C480,190,436,190,393,190C349.1,190,305,190,262,190C218.2,190,175,190,131,190C87.3,190,44,190,22,190L0,190Z"></path><defs><linearGradient id="sw-gradient-2" x1="0" x2="0" y1="1" y2="0"><stop stop-color="rgba(243, 106, 62, 1)" offset="0%"></stop><stop stop-color="rgba(255, 179, 11, 1)" offset="100%"></stop></linearGradient></defs><path style="transform:translate(0, 100px); opacity:0.8" fill="url(#sw-gradient-2)" d="M0,38L21.8,47.5C43.6,57,87,76,131,85.5C174.5,95,218,95,262,101.3C305.5,108,349,120,393,120.3C436.4,120,480,108,524,88.7C567.3,70,611,44,655,41.2C698.2,38,742,57,785,76C829.1,95,873,114,916,101.3C960,89,1004,44,1047,41.2C1090.9,38,1135,76,1178,88.7C1221.8,101,1265,89,1309,85.5C1352.7,82,1396,89,1440,95C1483.6,101,1527,108,1571,91.8C1614.5,76,1658,38,1702,25.3C1745.5,13,1789,25,1833,50.7C1876.4,76,1920,114,1964,117.2C2007.3,120,2051,89,2095,88.7C2138.2,89,2182,120,2225,120.3C2269.1,120,2313,89,2356,82.3C2400,76,2444,95,2487,85.5C2530.9,76,2575,38,2618,38C2661.8,38,2705,76,2749,91.8C2792.7,108,2836,101,2880,95C2923.6,89,2967,82,3011,69.7C3054.5,57,3098,38,3120,28.5L3141.8,19L3141.8,190L3120,190C3098.2,190,3055,190,3011,190C2967.3,190,2924,190,2880,190C2836.4,190,2793,190,2749,190C2705.5,190,2662,190,2618,190C2574.5,190,2531,190,2487,190C2443.6,190,2400,190,2356,190C2312.7,190,2269,190,2225,190C2181.8,190,2138,190,2095,190C2050.9,190,2007,190,1964,190C1920,190,1876,190,1833,190C1789.1,190,1745,190,1702,190C1658.2,190,1615,190,1571,190C1527.3,190,1484,190,1440,190C1396.4,190,1353,190,1309,190C1265.5,190,1222,190,1178,190C1134.5,190,1091,190,1047,190C1003.6,190,960,190,916,190C872.7,190,829,190,785,190C741.8,190,698,190,655,190C610.9,190,567,190,524,190C480,190,436,190,393,190C349.1,190,305,190,262,190C218.2,190,175,190,131,190C87.3,190,44,190,22,190L0,190Z"></path><defs><linearGradient id="sw-gradient-3" x1="0" x2="0" y1="1" y2="0"><stop stop-color="rgba(243, 106, 62, 1)" offset="0%"></stop><stop stop-color="rgba(255, 179, 11, 1)" offset="100%"></stop></linearGradient></defs><path style="transform:translate(0, 150px); opacity:0.7" fill="url(#sw-gradient-3)" d="M0,19L21.8,15.8C43.6,13,87,6,131,28.5C174.5,51,218,101,262,114C305.5,127,349,101,393,79.2C436.4,57,480,38,524,25.3C567.3,13,611,6,655,31.7C698.2,57,742,114,785,136.2C829.1,158,873,146,916,136.2C960,127,1004,120,1047,120.3C1090.9,120,1135,127,1178,123.5C1221.8,120,1265,108,1309,101.3C1352.7,95,1396,95,1440,104.5C1483.6,114,1527,133,1571,139.3C1614.5,146,1658,139,1702,136.2C1745.5,133,1789,133,1833,136.2C1876.4,139,1920,146,1964,139.3C2007.3,133,2051,114,2095,107.7C2138.2,101,2182,108,2225,101.3C2269.1,95,2313,76,2356,69.7C2400,63,2444,70,2487,60.2C2530.9,51,2575,25,2618,22.2C2661.8,19,2705,38,2749,44.3C2792.7,51,2836,44,2880,50.7C2923.6,57,2967,76,3011,72.8C3054.5,70,3098,44,3120,31.7L3141.8,19L3141.8,190L3120,190C3098.2,190,3055,190,3011,190C2967.3,190,2924,190,2880,190C2836.4,190,2793,190,2749,190C2705.5,190,2662,190,2618,190C2574.5,190,2531,190,2487,190C2443.6,190,2400,190,2356,190C2312.7,190,2269,190,2225,190C2181.8,190,2138,190,2095,190C2050.9,190,2007,190,1964,190C1920,190,1876,190,1833,190C1789.1,190,1745,190,1702,190C1658.2,190,1615,190,1571,190C1527.3,190,1484,190,1440,190C1396.4,190,1353,190,1309,190C1265.5,190,1222,190,1178,190C1134.5,190,1091,190,1047,190C1003.6,190,960,190,916,190C872.7,190,829,190,785,190C741.8,190,698,190,655,190C610.9,190,567,190,524,190C480,190,436,190,393,190C349.1,190,305,190,262,190C218.2,190,175,190,131,190C87.3,190,44,190,22,190L0,190Z"></path></svg>